<svg xmlns="http://www.w3.org/2000/svg" xmlns:xlink="http://www.w3.org/1999/xlink" width="140" height="32" viewBox="0 0 140 32"><defs><path id="9vxta" d="M81.02 17.02h139.95v31.96H81.02z"/><path id="9vxtc" d="M81 17.02h139.96V49H81zm2.29 2.33v27.33h135.38V19.35H83.29z"/><path id="9vxtd" d="M165.05 23.97a8.92 8.92 0 0 1 9.33 7.35 9.14 9.14 0 0 1-1.37 6.7 8.94 8.94 0 0 1-11.87 2.8 9.02 9.02 0 0 1-3.92-4.61 9.18 9.18 0 0 1 .24-7.04 9 9 0 0 1 7.6-5.2zm-.5 2.4a6.2 6.2 0 0 0-5.42 5.67 7.5 7.5 0 0 0 .63 4.1 6.1 6.1 0 0 0 2.18 2.49 6.63 6.63 0 0 0 3.58 1.03c1.26.01 2.54-.3 3.62-.98a6.05 6.05 0 0 0 2.21-2.47 7.49 7.49 0 0 0-.54-7.36 5.98 5.98 0 0 0-2.4-1.96 7.1 7.1 0 0 0-3.85-.52z"/><path id="9vxte" d="M143.12 24.09a6 6 0 0 1 5.05 1.4 4.6 4.6 0 0 1 1.47 3.38h-2.55c-.01-.6-.25-1.18-.65-1.6-.6-.68-1.52-1-2.4-.97-.75.02-1.52.28-2.04.84-.83.87-.82 2.43.05 3.27.63.64 1.52.92 2.36 1.13.9.23 1.85.37 2.71.75.9.37 1.71.97 2.24 1.8.53.8.74 1.77.75 2.72a4.94 4.94 0 0 1-1.07 3.09 5.25 5.25 0 0 1-2.05 1.55c-1.94.83-4.29.65-6.05-.55a5.19 5.19 0 0 1-2.46-4.06l2.44-.93c-.01.87.25 1.76.81 2.43a3.52 3.52 0 0 0 2.8 1.25 3.5 3.5 0 0 0 2.37-.87 2.58 2.58 0 0 0 .3-3.3 3.51 3.51 0 0 0-2.01-1.1c-.92-.2-1.83-.44-2.7-.77a5.8 5.8 0 0 1-2.7-2.03 5.1 5.1 0 0 1-.83-3.32c.09-.98.53-1.91 1.2-2.6a5.29 5.29 0 0 1 2.96-1.51"/><path id="9vxtf" d="M89.89 24.42h2.45v7c2.1-2.32 4.18-4.66 6.27-7h2.9l-7.31 8.41 7.55 8.7c-1.01.02-2.03.01-3.04.01-.09.02-.14-.08-.2-.13-2.05-2.38-4.1-4.76-6.17-7.13v7.26h-2.45V24.42"/><path id="9vxtg" d="M108.47 24.43H111v17.1h-2.53v-17.1"/><path id="9vxth" d="M119.65 24.42h2.53c.99 0 1.98-.04 2.96.14a8.37 8.37 0 0 1 5.43 3.2 9.06 9.06 0 0 1 1.42 7.29 8.1 8.1 0 0 1-6.54 6.3c-1.26.27-2.55.18-3.83.2h-1.97V24.41zm2.45 2.35v12.42c1-.02 2.01.06 3-.13a5.6 5.6 0 0 0 3.06-1.57 5.8 5.8 0 0 0 1.5-3.2c.17-1.1.14-2.23-.13-3.31a5.42 5.42 0 0 0-1.72-2.85 6.04 6.04 0 0 0-3.42-1.33c-.76-.06-1.53-.02-2.3-.03z"/><path id="9vxti" d="M181.83 24.42h2.45V35.8c0 .64-.03 1.29.2 1.88.29.87 1.02 1.55 1.88 1.8 1 .3 2.15.23 3.04-.35a2.92 2.92 0 0 0 1.24-1.84c.1-.47.08-.95.08-1.42V24.42h2.45v10.5c-.01 1.11.07 2.24-.25 3.32-.3 1.09-.95 2.1-1.85 2.76-.92.69-2.07 1-3.2 1-.49 0-.98.03-1.47-.04a5.04 5.04 0 0 1-4.5-4.53c-.09-.62-.07-1.25-.07-1.88V24.42"/><path id="9vxtj" d="M200.2 24.42h11.86v2.34h-4.7v14.78h-2.46V26.76h-4.7v-2.34"/><clipPath id="9vxtb"><use xlink:href="#9vxta"/></clipPath></defs><g><g transform="translate(-81 -17)"><g/><g clip-path="url(#9vxtb)"><use xlink:href="#9vxtc"/></g><g clip-path="url(#9vxtb)"><use xlink:href="#9vxtd"/></g><g clip-path="url(#9vxtb)"><use xlink:href="#9vxte"/></g><g clip-path="url(#9vxtb)"><use xlink:href="#9vxtf"/></g><g clip-path="url(#9vxtb)"><use xlink:href="#9vxtg"/></g><g clip-path="url(#9vxtb)"><use xlink:href="#9vxth"/></g><g clip-path="url(#9vxtb)"><use xlink:href="#9vxti"/></g><g clip-path="url(#9vxtb)"><use xlink:href="#9vxtj"/></g></g></g></svg>